# xmcd
#
# Track frame offsets:
#	150
#	15631
#	31277
#	48167
#	62679
#	77805
#	92917
#	106649
#	124007
#	145307
#	164772
#	193680
#	212817
#	229650
#	244749
#	262664
#	278023
#
# Disc length: 3856 seconds
#
# Revision: 1
# Processed by: cddbd v1.5.2PL0 Copyright (c) Steve Scherf et al.
# Submitted via: audiograbber 1.83.01
#
DISCID=e20f0e11
DTITLE=Various Artist - Beaut Ute Anthems 2014 [Disc 1]
DYEAR=2014
DGENRE=Country
TTITLE0=Lee Kernaghan - Beautiful Noise
TTITLE1=Florida Georgia Line feat. Nelly - Cruise (Remix)
TTITLE2=The McClymonts - Here's To You And I
TTITLE3=Miranda Lambert - Gunpowder and Lead
TTITLE4=McAlister Kemp - Harder To Tame
TTITLE5=Jasmine Rae - My Daddy's Name
TTITLE6=Catherine Britt - I'm Gone
TTITLE7=Doc Walker - That's All
TTITLE8=Lynyrd Skynyrd - Sweet Home Alabama
TTITLE9=Travis Collins - Heart Of Blues
TTITLE10=Golden Earring - Radar Love (Album Version)
TTITLE11=Lachlan Bryan and The Wildes - 309 (featuring Bill Chambers)
TTITLE12=Peter McWhirter - How Can I Let You Go?
TTITLE13=The Snowdroppers - So Much Better
TTITLE14=Baylou - Novocaine
TTITLE15=Dallas Steele - A Drifter's Photographs
TTITLE16=Roger Miller - King Of The Road (Single Version)
EXTD=
EXTT0=
EXTT1=
EXTT2=
EXTT3=
EXTT4=
EXTT5=
EXTT6=
EXTT7=
EXTT8=
EXTT9=
EXTT10=
EXTT11=
EXTT12=
EXTT13=
EXTT14=
EXTT15=
EXTT16=
PLAYORDER=
